<?xml version="1.0" encoding="utf-8"?>
<!-- Svg Vector Icons : http://www.onlinewebfonts.com/icon -->
<!DOCTYPE svg PUBLIC "-//W3C//DTD SVG 1.1//EN" "http://www.w3.org/Graphics/SVG/1.1/DTD/svg11.dtd">
<svg version="1.1" xmlns="http://www.w3.org/2000/svg" xmlns:xlink="http://www.w3.org/1999/xlink" x="0px" y="0px" viewBox="0 0 256 256" enable-background="new 0 0 256 256" xml:space="preserve">
<metadata> Svg Vector Icons : http://www.onlinewebfonts.com/icon </metadata>
<g><g><path fill="#ab4c0d" d="M128,213c29.5,0,53.1-13,70.8-37.8c0-10.6-8.3-18.9-24.8-26c-16.5-7.1-31.9-10.6-46-10.6s-29.5,3.5-46,10.6s-24.8,15.3-24.8,26C74.9,200,98.5,213,128,213z M128,45.4c-9.4,0-17.7,3.5-24.8,10.6c-7.1,7.1-10.6,15.3-10.6,24.8c0,9.4,3.5,17.7,10.6,24.8s15.3,10.6,24.8,10.6c9.4,0,17.7-3.5,24.8-10.6s10.6-15.3,10.6-24.8c0-9.4-3.5-17.7-10.6-24.8C146.9,48.9,138.6,45.4,128,45.4z M128,10c33,0,60.2,11.8,83.8,34.2C235.4,67.8,246,95,246,128c0,33-11.8,60.2-34.2,83.8C188.2,235.4,161,246,128,246c-33,0-60.2-11.8-83.8-34.2C20.6,188.2,10,161,10,128c0-33,11.8-60.2,34.2-83.8C67.8,21.8,96.1,10,128,10z"/></g></g>
</svg>